HIERARCHY
ROOT Hips
{
	OFFSET 11.2666 35.4190 -54.3259
	CHANNELS 6 Xposition Yposition Zposition Xrotation Yrotation Zrotation
	JOINT Spine
	{
		OFFSET 0.0000 8.4730 0.0000
		CHANNELS 3 Xrotation Yrotation Zrotation
		JOINT Head
		{
			OFFSET 0.0000 13.8244 0.0000
			CHANNELS 3 Xrotation Yrotation Zrotation
			End Site
			{
				OFFSET 0.0000 4.5275 0.0000
			}
		}
		JOINT LeftShoulder
		{
			OFFSET 0.0000 9.9635 0.0000
			CHANNELS 3 Xrotation Yrotation Zrotation
			JOINT LeftArm
			{
				OFFSET 7.3084 0.0000 0.0000
				CHANNELS 3 Xrotation Yrotation Zrotation
				JOINT LeftForeArm
				{
					OFFSET 10.7061 0.0000 0.0000
					CHANNELS 3 Xrotation Yrotation Zrotation
					JOINT LeftHand
					{
						OFFSET 8.4968 0.0000 0.0000
						CHANNELS 3 Xrotation Yrotation Zrotation
						JOINT LeftHandThumb1
						{
							OFFSET 0.0000 0.0000 0.0000
							CHANNELS 3 Xrotation Yrotation Zrotation
							End Site
							{
								OFFSET 0.0000 0.0000 3.9370
							}
						}
						JOINT LeftHand_End
						{
							OFFSET 3.9370 0.0000 0.0000
							CHANNELS 3 Xrotation Yrotation Zrotation
							End Site
							{
								OFFSET 0.0000 0.0000 0.0000
							}
						}
					}
				}
			}
		}
		JOINT RightShoulder
		{
			OFFSET 0.0000 9.9635 0.0000
			CHANNELS 3 Xrotation Yrotation Zrotation
			JOINT RightArm
			{
				OFFSET -7.3084 0.0000 0.0000
				CHANNELS 3 Xrotation Yrotation Zrotation
				JOINT RightForeArm
				{
					OFFSET -10.7061 0.0000 0.0000
					CHANNELS 3 Xrotation Yrotation Zrotation
					JOINT RightHand
					{
						OFFSET -8.4968 0.0000 0.0000
						CHANNELS 3 Xrotation Yrotation Zrotation
						JOINT RightHandThumb1
						{
							OFFSET 0.0000 0.0000 0.0000
							CHANNELS 3 Xrotation Yrotation Zrotation
							End Site
							{
								OFFSET 0.0000 0.0000 3.9370
							}
						}
						JOINT RightHand_End
						{
							OFFSET -3.9370 0.0000 0.0000
							CHANNELS 3 Xrotation Yrotation Zrotation
							End Site
							{
								OFFSET 0.0000 0.0000 0.0000
							}
						}
					}
				}
			}
		}
	}
	JOINT LeftUpLeg
	{
		OFFSET 4.0316 0.0000 0.0000
		CHANNELS 3 Xrotation Yrotation Zrotation
		JOINT LeftLeg
		{
			OFFSET 0.0000 -16.7874 0.0000
			CHANNELS 3 Xrotation Yrotation Zrotation
			JOINT LeftFoot
			{
				OFFSET 0.0000 -15.4942 0.0000
				CHANNELS 3 Xrotation Yrotation Zrotation
				JOINT LeftToeBase
				{
					OFFSET 0.0000 -1.4513 5.4164
					CHANNELS 3 Xrotation Yrotation Zrotation
					End Site
					{
						OFFSET 0.0000 0.0000 2.9527
					}
				}
			}
		}
	}
	JOINT RightUpLeg
	{
		OFFSET -4.0316 0.0000 0.0000
		CHANNELS 3 Xrotation Yrotation Zrotation
		JOINT RightLeg
		{
			OFFSET 0.0000 -16.7874 0.0000
			CHANNELS 3 Xrotation Yrotation Zrotation
			JOINT RightFoot
			{
				OFFSET 0.0000 -15.4942 0.0000
				CHANNELS 3 Xrotation Yrotation Zrotation
				JOINT RightToeBase
				{
					OFFSET 0.0000 -1.4513 5.4164
					CHANNELS 3 Xrotation Yrotation Zrotation
					End Site
					{
						OFFSET 0.0000 0.0000 2.9527
					}
				}
			}
		}
	}
}
MOTION
Frames: 8
Frame Time: 0.008333
37.1537 31.3915 72.0289 -10.8173 -56.1951 -2.3913 5.9906 -4.5291 -4.2435 -10.7858 -42.6511 -7.3442 -0.0681 7.4765 12.0222 -2.6523 -22.2641 -78.0616 9.8829 -46.8800 7.2473 1.6608 7.6152 -12.3415 -0.0000 0.0000 -0.0000 -0.0000 0.0000 -0.0000 14.0460 -10.0125 -5.0371 6.5726 13.3189 81.5861 -9.8433 38.5967 6.1777 0.2917 -3.1656 5.2674 -0.0000 0.0000 -0.0000 -0.0000 0.0000 -0.0000 11.4905 9.8485 15.5605 51.2088 -0.0000 0.0000 30.9917 -2.7420 -21.1715 -10.0897 -0.0000 0.0000 -22.5270 -21.3854 7.5917 25.0923 -0.0000 0.0000 -7.0134 -11.3363 -3.3390 -9.1020 0.0000 -0.0000 
36.6375 31.3998 72.1758 -11.2787 -57.4273 -3.2163 6.3620 -3.8996 -3.8898 -11.3590 -43.1447 -7.1087 0.2207 8.1630 11.7010 -2.7331 -21.0081 -78.5805 10.0682 -46.2160 7.3047 1.6343 7.5706 -12.2193 -0.0000 0.0000 -0.0000 -0.0000 0.0000 -0.0000 13.9311 -10.0483 -4.8132 5.5879 12.2701 82.1205 -9.6433 37.7109 5.9336 0.2277 -2.8106 4.6341 -0.0000 0.0000 -0.0000 -0.0000 0.0000 -0.0000 9.9158 9.1147 15.9649 54.5214 -0.0000 0.0000 29.9704 -2.1123 -21.8445 -10.0783 0.0000 0.0000 -21.9496 -20.4933 8.5912 26.4964 -0.0000 0.0000 -7.5376 -11.2657 -3.5683 -8.8846 -0.0000 -0.0000 
36.1100 31.4181 72.3252 -12.1716 -58.7788 -4.3893 6.9678 -3.1994 -3.6393 -11.8501 -43.7552 -6.7297 0.5437 8.7291 11.4271 -2.7539 -19.2926 -79.1920 10.1954 -45.5662 7.3179 1.5531 7.2733 -12.0882 -0.0000 0.0000 -0.0000 -0.0000 0.0000 -0.0000 13.6831 -9.9489 -4.5687 4.6407 11.1397 82.6376 -9.3950 36.7763 5.6572 0.1793 -2.5383 4.0409 -0.0000 0.0000 -0.0000 -0.0000 0.0000 -0.0000 8.6714 8.4628 16.2564 57.4154 0.0000 0.0000 28.5243 -2.0173 -22.1633 -10.0323 -0.0000 -0.0000 -20.9119 -19.7613 9.6217 27.5232 0.0000 0.0000 -8.1351 -10.9096 -4.0469 -8.8544 -0.0000 -0.0000 
35.5751 31.4430 72.4666 -13.3814 -60.1062 -5.8179 7.6401 -2.5555 -3.5118 -11.9856 -44.4411 -6.1372 1.0883 9.1513 11.2315 -2.8258 -17.3314 -79.8274 10.0585 -44.9000 7.1367 1.4274 6.9572 -11.6249 -0.0000 0.0000 -0.0000 -0.0000 0.0000 -0.0000 13.4698 -9.7257 -4.3086 3.6419 10.1712 83.1680 -9.3373 35.7411 5.4861 0.1281 -2.2547 3.2518 -0.0000 0.0000 -0.0000 -0.0000 0.0000 -0.0000 7.5013 7.8960 16.5350 60.0379 -0.0000 0.0000 27.0582 -2.3736 -21.3685 -10.0959 -0.0000 0.0000 -19.4885 -19.1285 10.6782 28.1041 -0.0000 0.0000 -8.7211 -10.3937 -4.8650 -8.9844 0.0000 0.0000 
35.0397 31.4786 72.6001 -14.8101 -61.4578 -7.3605 8.3479 -1.8762 -3.5722 -11.9716 -45.2900 -5.4667 1.6041 9.4404 11.1156 -2.7135 -15.5298 -80.3464 9.2095 -44.2132 6.4505 1.2638 6.5462 -10.9522 -0.0000 0.0000 -0.0000 -0.0000 0.0000 -0.0000 13.2708 -9.5253 -4.0286 2.4561 9.2741 83.7360 -8.8717 34.4823 5.0501 0.0887 -1.9729 2.5757 -0.0000 0.0000 -0.0000 -0.0000 0.0000 -0.0000 6.3992 7.3773 16.6993 62.3116 0.0000 0.0000 25.8157 -2.9496 -20.1782 -10.5018 -0.0000 -0.0000 -17.8776 -18.3170 11.7158 28.3078 0.0000 0.0000 -9.3363 -10.0004 -5.9552 -9.2232 0.0000 0.0000 
34.5176 31.5271 72.7228 -16.1637 -62.7141 -8.7683 8.9171 -1.3597 -3.7903 -11.6161 -46.1093 -4.5841 2.0477 9.6739 11.0806 -2.4140 -13.7056 -80.8584 8.2662 -43.4580 5.7066 1.1069 6.1364 -10.2452 -0.0000 0.0000 -0.0000 -0.0000 0.0000 -0.0000 12.9943 -9.2476 -3.7018 1.3669 8.5391 84.2635 -8.8617 33.1902 4.8783 0.0506 -1.6790 1.7271 -0.0000 0.0000 -0.0000 -0.0000 0.0000 -0.0000 5.1620 6.7284 16.7297 64.3286 0.0000 0.0000 24.5430 -3.6201 -19.3298 -10.0785 -0.0000 0.0000 -16.3540 -17.1598 12.6118 28.2479 -0.0000 0.0000 -9.7931 -9.7329 -6.2360 -9.0440 0.0000 0.0000 
34.0085 31.5882 72.8348 -17.3843 -63.8753 -9.9911 9.3179 -0.9602 -4.1428 -10.9532 -46.9941 -3.5999 2.4941 9.8325 11.1385 -2.0117 -12.1842 -81.2970 6.7481 -42.5181 4.5720 0.9300 5.5916 -9.4585 -0.0000 0.0000 -0.0000 -0.0000 0.0000 -0.0000 12.7378 -8.9707 -3.3122 0.2280 7.9218 84.7550 -8.6792 31.8183 4.6013 0.0251 -1.5161 0.9471 -0.0000 0.0000 -0.0000 -0.0000 0.0000 -0.0000 3.7869 5.9634 16.6236 66.0839 0.0000 -0.0000 23.5579 -4.0016 -18.1865 -10.5446 -0.0000 0.0000 -14.9799 -15.7902 13.3442 28.0351 0.0000 -0.0000 -10.1736 -9.6534 -6.2300 -8.8759 -0.0000 0.0000 
33.5174 31.6596 72.9315 -18.2967 -64.9059 -10.8809 9.5135 -0.7210 -4.5906 -10.0615 -47.9203 -2.5410 2.8302 9.9443 11.2945 -1.4771 -10.7901 -81.7107 5.0759 -41.3938 3.3613 0.8050 5.1130 -8.9600 -0.0000 0.0000 -0.0000 -0.0000 0.0000 -0.0000 12.5265 -8.7228 -2.8532 -0.9874 7.4105 85.1730 -8.3678 30.3937 4.2561 0.0121 -1.4021 0.4948 -0.0000 0.0000 -0.0000 -0.0000 0.0000 -0.0000 2.2093 4.9940 16.3968 67.6209 0.0000 0.0000 22.5748 -4.0304 -17.5065 -10.7319 -0.0000 0.0000 -13.7343 -14.5952 13.9360 27.6732 -0.0000 -0.0000 -10.4289 -9.4824 -6.2548 -8.8188 0.0000 0.0000 
